<?xml version="1.0" encoding="UTF-8" standalone="no"?>
<!DOCTYPE svg PUBLIC "-//W3C//DTD SVG 1.1//EN"
 "http://www.w3.org/Graphics/SVG/1.1/DTD/svg11.dtd">
<!-- Generated by graphviz version 14.0.4 (20251115.1723)
 -->
<!-- Title: SchemaGraph Pages: 1 -->
<svg width="1966pt" height="287pt"
 viewBox="0.00 0.00 1966.00 287.00" xmlns="http://www.w3.org/2000/svg" xmlns:xlink="http://www.w3.org/1999/xlink">
<g id="graph0" class="graph" transform="scale(1 1) rotate(0) translate(4 282.75)">
<title>SchemaGraph</title>
<polygon fill="white" stroke="none" points="-4,4 -4,-282.75 1962,-282.75 1962,4 -4,4"/>
<g id="clust1" class="cluster">
<title>cluster_account_org_biz</title>
<path fill="none" stroke="#cccccc" d="M20,-8C20,-8 1083,-8 1083,-8 1089,-8 1095,-14 1095,-20 1095,-20 1095,-258.75 1095,-258.75 1095,-264.75 1089,-270.75 1083,-270.75 1083,-270.75 20,-270.75 20,-270.75 14,-270.75 8,-264.75 8,-258.75 8,-258.75 8,-20 8,-20 8,-14 14,-8 20,-8"/>
<text xml:space="preserve" text-anchor="middle" x="551.5" y="-257.25" font-family="Helvetica,sans-Serif" font-size="10.00">account.org.biz</text>
</g>
<g id="clust2" class="cluster">
<title>cluster_contact_org_biz</title>
<path fill="none" stroke="#cccccc" d="M1115,-13.25C1115,-13.25 1938,-13.25 1938,-13.25 1944,-13.25 1950,-19.25 1950,-25.25 1950,-25.25 1950,-253.5 1950,-253.5 1950,-259.5 1944,-265.5 1938,-265.5 1938,-265.5 1115,-265.5 1115,-265.5 1109,-265.5 1103,-259.5 1103,-253.5 1103,-253.5 1103,-25.25 1103,-25.25 1103,-19.25 1109,-13.25 1115,-13.25"/>
<text xml:space="preserve" text-anchor="middle" x="1526.5" y="-252" font-family="Helvetica,sans-Serif" font-size="10.00">contact.org.biz</text>
</g>
<!-- account_org_biz_account_balance_snapshot -->
<g id="node1" class="node">
<title>account_org_biz_account_balance_snapshot</title>
<polygon fill="#ffcccc" stroke="#ff0000" stroke-width="2" points="16.38,-142.25 16.38,-231.75 139.62,-231.75 139.62,-142.25 16.38,-142.25"/>
<text xml:space="preserve" text-anchor="middle" x="78" y="-219.2" font-family="Helvetica,sans-Serif" font-size="9.00">AccountBalanceSnapshot</text>
<polyline fill="none" stroke="#ff0000" stroke-width="2" points="16.38,-213.25 139.62,-213.25"/>
<text xml:space="preserve" text-anchor="start" x="24.38" y="-200.7" font-family="Helvetica,sans-Serif" font-size="9.00">snapshotId: string</text>
<text xml:space="preserve" text-anchor="start" x="24.38" y="-190.2" font-family="Helvetica,sans-Serif" font-size="9.00">accountNumber: ref</text>
<text xml:space="preserve" text-anchor="start" x="24.38" y="-179.7" font-family="Helvetica,sans-Serif" font-size="9.00">asOf: string</text>
<text xml:space="preserve" text-anchor="start" x="24.38" y="-169.2" font-family="Helvetica,sans-Serif" font-size="9.00">availableBalance: number</text>
<text xml:space="preserve" text-anchor="start" x="24.38" y="-158.7" font-family="Helvetica,sans-Serif" font-size="9.00">currentBalance: number</text>
<text xml:space="preserve" text-anchor="start" x="24.38" y="-148.2" font-family="Helvetica,sans-Serif" font-size="9.00">currency: string</text>
</g>
<!-- account_org_biz_account -->
<g id="node3" class="node">
<title>account_org_biz_account</title>
<polygon fill="none" stroke="black" points="608.88,-16.5 608.88,-85 717.12,-85 717.12,-16.5 608.88,-16.5"/>
<text xml:space="preserve" text-anchor="middle" x="663" y="-72.45" font-family="Helvetica,sans-Serif" font-size="9.00">Account</text>
<polyline fill="none" stroke="black" points="608.88,-66.5 717.12,-66.5"/>
<text xml:space="preserve" text-anchor="start" x="616.88" y="-53.95" font-family="Helvetica,sans-Serif" font-size="9.00">routingNumber: string</text>
<text xml:space="preserve" text-anchor="start" x="616.88" y="-43.45" font-family="Helvetica,sans-Serif" font-size="9.00">accountNumber: string</text>
<text xml:space="preserve" text-anchor="start" x="616.88" y="-32.95" font-family="Helvetica,sans-Serif" font-size="9.00">accountName: string</text>
<text xml:space="preserve" text-anchor="start" x="616.88" y="-22.45" font-family="Helvetica,sans-Serif" font-size="9.00">accountType: enum</text>
</g>
<!-- account_org_biz_account_balance_snapshot&#45;&gt;account_org_biz_account -->
<g id="edge1" class="edge">
<title>account_org_biz_account_balance_snapshot&#45;&gt;account_org_biz_account</title>
<path fill="none" stroke="black" d="M129.82,-141.97C136.04,-137.94 142.5,-134.25 149,-131.25 227.74,-94.94 477.63,-68.37 597.55,-57.36"/>
<polygon fill="black" stroke="black" points="597.59,-60.87 607.23,-56.48 596.96,-53.9 597.59,-60.87"/>
<text xml:space="preserve" text-anchor="middle" x="271.26" y="-105.65" font-family="Helvetica,sans-Serif" font-size="8.00">accountNumber</text>
</g>
<!-- account_org_biz_account_holder_link -->
<g id="node2" class="node">
<title>account_org_biz_account_holder_link</title>
<polygon fill="#ffcccc" stroke="#ff0000" stroke-width="2" points="976.75,-152.75 976.75,-221.25 1087.25,-221.25 1087.25,-152.75 976.75,-152.75"/>
<text xml:space="preserve" text-anchor="middle" x="1032" y="-208.7" font-family="Helvetica,sans-Serif" font-size="9.00">AccountHolderLink</text>
<polyline fill="none" stroke="#ff0000" stroke-width="2" points="976.75,-202.75 1087.25,-202.75"/>
<text xml:space="preserve" text-anchor="start" x="984.75" y="-190.2" font-family="Helvetica,sans-Serif" font-size="9.00">accountHolderId: string</text>
<text xml:space="preserve" text-anchor="start" x="984.75" y="-179.7" font-family="Helvetica,sans-Serif" font-size="9.00">contactId: ref</text>
<text xml:space="preserve" text-anchor="start" x="984.75" y="-169.2" font-family="Helvetica,sans-Serif" font-size="9.00">accountNumber: ref</text>
<text xml:space="preserve" text-anchor="start" x="984.75" y="-158.7" font-family="Helvetica,sans-Serif" font-size="9.00">role: string</text>
</g>
<!-- account_org_biz_account_holder_link&#45;&gt;account_org_biz_account -->
<g id="edge3" class="edge">
<title>account_org_biz_account_holder_link&#45;&gt;account_org_biz_account</title>
<path fill="none" stroke="black" d="M998.56,-152.48C989.27,-144.6 978.76,-136.87 968,-131.25 891.13,-91.1 792.54,-70.19 728.59,-60.09"/>
<polygon fill="black" stroke="black" points="729.37,-56.67 718.95,-58.62 728.31,-63.59 729.37,-56.67"/>
<text xml:space="preserve" text-anchor="middle" x="949.76" y="-105.65" font-family="Helvetica,sans-Serif" font-size="8.00">accountNumber</text>
</g>
<!-- contact_org_biz_contact -->
<g id="node12" class="node">
<title>contact_org_biz_contact</title>
<polygon fill="none" stroke="black" points="1435,-21.75 1435,-79.75 1517,-79.75 1517,-21.75 1435,-21.75"/>
<text xml:space="preserve" text-anchor="middle" x="1476" y="-67.2" font-family="Helvetica,sans-Serif" font-size="9.00">Contact</text>
<polyline fill="none" stroke="black" points="1435,-61.25 1517,-61.25"/>
<text xml:space="preserve" text-anchor="start" x="1443" y="-48.7" font-family="Helvetica,sans-Serif" font-size="9.00">contactId: string</text>
<text xml:space="preserve" text-anchor="start" x="1443" y="-38.2" font-family="Helvetica,sans-Serif" font-size="9.00">firstName: string</text>
<text xml:space="preserve" text-anchor="start" x="1443" y="-27.7" font-family="Helvetica,sans-Serif" font-size="9.00">lastName: string</text>
</g>
<!-- account_org_biz_account_holder_link&#45;&gt;contact_org_biz_contact -->
<g id="edge2" class="edge">
<title>account_org_biz_account_holder_link&#45;&gt;contact_org_biz_contact</title>
<path fill="none" stroke="black" d="M1066.68,-152.44C1076.49,-144.47 1087.62,-136.7 1099,-131.25 1207.03,-79.53 1348.38,-61.27 1423.58,-54.96"/>
<polygon fill="black" stroke="black" points="1423.43,-58.49 1433.12,-54.2 1422.87,-51.51 1423.43,-58.49"/>
<text xml:space="preserve" text-anchor="middle" x="1183.2" y="-105.65" font-family="Helvetica,sans-Serif" font-size="8.00">contactId</text>
</g>
<!-- account_org_biz_bank -->
<g id="node4" class="node">
<title>account_org_biz_bank</title>
<polygon fill="none" stroke="black" points="304.25,-152.75 304.25,-221.25 399.75,-221.25 399.75,-152.75 304.25,-152.75"/>
<text xml:space="preserve" text-anchor="middle" x="352" y="-208.7" font-family="Helvetica,sans-Serif" font-size="9.00">Bank</text>
<polyline fill="none" stroke="black" points="304.25,-202.75 399.75,-202.75"/>
<text xml:space="preserve" text-anchor="start" x="312.25" y="-190.2" font-family="Helvetica,sans-Serif" font-size="9.00">bankId: string</text>
<text xml:space="preserve" text-anchor="start" x="312.25" y="-179.7" font-family="Helvetica,sans-Serif" font-size="9.00">name: string</text>
<text xml:space="preserve" text-anchor="start" x="312.25" y="-169.2" font-family="Helvetica,sans-Serif" font-size="9.00">swiftCode: string</text>
<text xml:space="preserve" text-anchor="start" x="312.25" y="-158.7" font-family="Helvetica,sans-Serif" font-size="9.00">countryCode: string</text>
</g>
<!-- account_org_biz_branch -->
<g id="node5" class="node">
<title>account_org_biz_branch</title>
<polygon fill="none" stroke="black" points="417.75,-147.5 417.75,-226.5 522.25,-226.5 522.25,-147.5 417.75,-147.5"/>
<text xml:space="preserve" text-anchor="middle" x="470" y="-213.95" font-family="Helvetica,sans-Serif" font-size="9.00">Branch</text>
<polyline fill="none" stroke="black" points="417.75,-208 522.25,-208"/>
<text xml:space="preserve" text-anchor="start" x="425.75" y="-195.45" font-family="Helvetica,sans-Serif" font-size="9.00">branchId: string</text>
<text xml:space="preserve" text-anchor="start" x="425.75" y="-184.95" font-family="Helvetica,sans-Serif" font-size="9.00">bankId: string</text>
<text xml:space="preserve" text-anchor="start" x="425.75" y="-174.45" font-family="Helvetica,sans-Serif" font-size="9.00">name: string</text>
<text xml:space="preserve" text-anchor="start" x="425.75" y="-163.95" font-family="Helvetica,sans-Serif" font-size="9.00">routingNumber: string</text>
<text xml:space="preserve" text-anchor="start" x="425.75" y="-153.45" font-family="Helvetica,sans-Serif" font-size="9.00">addressId: string</text>
</g>
<!-- account_org_biz_card -->
<g id="node6" class="node">
<title>account_org_biz_card</title>
<polygon fill="#ffcccc" stroke="#ff0000" stroke-width="2" points="157.75,-137 157.75,-237 286.25,-237 286.25,-137 157.75,-137"/>
<text xml:space="preserve" text-anchor="middle" x="222" y="-224.45" font-family="Helvetica,sans-Serif" font-size="9.00">Card</text>
<polyline fill="none" stroke="#ff0000" stroke-width="2" points="157.75,-218.5 286.25,-218.5"/>
<text xml:space="preserve" text-anchor="start" x="165.75" y="-205.95" font-family="Helvetica,sans-Serif" font-size="9.00">cardId: string</text>
<text xml:space="preserve" text-anchor="start" x="165.75" y="-195.45" font-family="Helvetica,sans-Serif" font-size="9.00">accountNumber: ref</text>
<text xml:space="preserve" text-anchor="start" x="165.75" y="-184.95" font-family="Helvetica,sans-Serif" font-size="9.00">cardType: string</text>
<text xml:space="preserve" text-anchor="start" x="165.75" y="-174.45" font-family="Helvetica,sans-Serif" font-size="9.00">maskedCardNumber: string</text>
<text xml:space="preserve" text-anchor="start" x="165.75" y="-163.95" font-family="Helvetica,sans-Serif" font-size="9.00">expiryMonth: integer</text>
<text xml:space="preserve" text-anchor="start" x="165.75" y="-153.45" font-family="Helvetica,sans-Serif" font-size="9.00">expiryYear: integer</text>
<text xml:space="preserve" text-anchor="start" x="165.75" y="-142.95" font-family="Helvetica,sans-Serif" font-size="9.00">status: string</text>
</g>
<!-- account_org_biz_card&#45;&gt;account_org_biz_account -->
<g id="edge4" class="edge">
<title>account_org_biz_card&#45;&gt;account_org_biz_account</title>
<path fill="none" stroke="black" d="M284.25,-136.73C287.8,-134.74 291.4,-132.89 295,-131.25 394.69,-85.76 521.63,-65.75 597.37,-57.37"/>
<polygon fill="black" stroke="black" points="597.55,-60.87 607.12,-56.32 596.8,-53.91 597.55,-60.87"/>
<text xml:space="preserve" text-anchor="middle" x="390.41" y="-105.65" font-family="Helvetica,sans-Serif" font-size="8.00">accountNumber</text>
</g>
<!-- account_org_biz_direct_debit_mandate -->
<g id="node7" class="node">
<title>account_org_biz_direct_debit_mandate</title>
<polygon fill="#ffcccc" stroke="#ff0000" stroke-width="2" points="540.62,-142.25 540.62,-231.75 641.38,-231.75 641.38,-142.25 540.62,-142.25"/>
<text xml:space="preserve" text-anchor="middle" x="591" y="-219.2" font-family="Helvetica,sans-Serif" font-size="9.00">DirectDebitMandate</text>
<polyline fill="none" stroke="#ff0000" stroke-width="2" points="540.62,-213.25 641.38,-213.25"/>
<text xml:space="preserve" text-anchor="start" x="548.62" y="-200.7" font-family="Helvetica,sans-Serif" font-size="9.00">mandateId: string</text>
<text xml:space="preserve" text-anchor="start" x="548.62" y="-190.2" font-family="Helvetica,sans-Serif" font-size="9.00">accountNumber: ref</text>
<text xml:space="preserve" text-anchor="start" x="548.62" y="-179.7" font-family="Helvetica,sans-Serif" font-size="9.00">creditorName: string</text>
<text xml:space="preserve" text-anchor="start" x="548.62" y="-169.2" font-family="Helvetica,sans-Serif" font-size="9.00">creditorId: string</text>
<text xml:space="preserve" text-anchor="start" x="548.62" y="-158.7" font-family="Helvetica,sans-Serif" font-size="9.00">signatureDate: string</text>
<text xml:space="preserve" text-anchor="start" x="548.62" y="-148.2" font-family="Helvetica,sans-Serif" font-size="9.00">status: string</text>
</g>
<!-- account_org_biz_direct_debit_mandate&#45;&gt;account_org_biz_account -->
<g id="edge5" class="edge">
<title>account_org_biz_direct_debit_mandate&#45;&gt;account_org_biz_account</title>
<path fill="none" stroke="black" d="M606.9,-141.82C612.08,-129.15 618.24,-115.52 625,-103.5 626.59,-100.68 628.3,-97.83 630.1,-94.99"/>
<polygon fill="black" stroke="black" points="632.97,-97.01 635.6,-86.74 627.14,-93.12 632.97,-97.01"/>
<text xml:space="preserve" text-anchor="middle" x="653.5" y="-105.65" font-family="Helvetica,sans-Serif" font-size="8.00">accountNumber</text>
</g>
<!-- account_org_biz_payment_instruction -->
<g id="node8" class="node">
<title>account_org_biz_payment_instruction</title>
<polygon fill="#ffcccc" stroke="#ff0000" stroke-width="2" points="659,-137 659,-237 813,-237 813,-137 659,-137"/>
<text xml:space="preserve" text-anchor="middle" x="736" y="-224.45" font-family="Helvetica,sans-Serif" font-size="9.00">PaymentInstruction</text>
<polyline fill="none" stroke="#ff0000" stroke-width="2" points="659,-218.5 813,-218.5"/>
<text xml:space="preserve" text-anchor="start" x="667" y="-205.95" font-family="Helvetica,sans-Serif" font-size="9.00">paymentId: string</text>
<text xml:space="preserve" text-anchor="start" x="667" y="-195.45" font-family="Helvetica,sans-Serif" font-size="9.00">sourceAccountNumber: ref</text>
<text xml:space="preserve" text-anchor="start" x="667" y="-184.95" font-family="Helvetica,sans-Serif" font-size="9.00">destinationAccountNumber: string</text>
<text xml:space="preserve" text-anchor="start" x="667" y="-174.45" font-family="Helvetica,sans-Serif" font-size="9.00">amount: number</text>
<text xml:space="preserve" text-anchor="start" x="667" y="-163.95" font-family="Helvetica,sans-Serif" font-size="9.00">currency: string</text>
<text xml:space="preserve" text-anchor="start" x="667" y="-153.45" font-family="Helvetica,sans-Serif" font-size="9.00">scheduledDate: string</text>
<text xml:space="preserve" text-anchor="start" x="667" y="-142.95" font-family="Helvetica,sans-Serif" font-size="9.00">status: string</text>
</g>
<!-- account_org_biz_payment_instruction&#45;&gt;account_org_biz_account -->
<g id="edge6" class="edge">
<title>account_org_biz_payment_instruction&#45;&gt;account_org_biz_account</title>
<path fill="none" stroke="black" d="M709.23,-136.77C701.84,-123.18 693.87,-108.52 686.67,-95.28"/>
<polygon fill="black" stroke="black" points="689.9,-93.9 682.05,-86.79 683.76,-97.25 689.9,-93.9"/>
<text xml:space="preserve" text-anchor="middle" x="736" y="-105.65" font-family="Helvetica,sans-Serif" font-size="8.00">sourceAccountNumber</text>
</g>
<!-- account_org_biz_transaction -->
<g id="node9" class="node">
<title>account_org_biz_transaction</title>
<polygon fill="#ffcccc" stroke="#ff0000" stroke-width="2" points="831.5,-131.75 831.5,-242.25 958.5,-242.25 958.5,-131.75 831.5,-131.75"/>
<text xml:space="preserve" text-anchor="middle" x="895" y="-229.7" font-family="Helvetica,sans-Serif" font-size="9.00">Transaction</text>
<polyline fill="none" stroke="#ff0000" stroke-width="2" points="831.5,-223.75 958.5,-223.75"/>
<text xml:space="preserve" text-anchor="start" x="839.5" y="-211.2" font-family="Helvetica,sans-Serif" font-size="9.00">transactionId: string</text>
<text xml:space="preserve" text-anchor="start" x="839.5" y="-200.7" font-family="Helvetica,sans-Serif" font-size="9.00">accountNumber: ref</text>
<text xml:space="preserve" text-anchor="start" x="839.5" y="-190.2" font-family="Helvetica,sans-Serif" font-size="9.00">amount: number</text>
<text xml:space="preserve" text-anchor="start" x="839.5" y="-179.7" font-family="Helvetica,sans-Serif" font-size="9.00">currency: string</text>
<text xml:space="preserve" text-anchor="start" x="839.5" y="-169.2" font-family="Helvetica,sans-Serif" font-size="9.00">transactionDate: string</text>
<text xml:space="preserve" text-anchor="start" x="839.5" y="-158.7" font-family="Helvetica,sans-Serif" font-size="9.00">description: string</text>
<text xml:space="preserve" text-anchor="start" x="839.5" y="-148.2" font-family="Helvetica,sans-Serif" font-size="9.00">transactionType: string</text>
<text xml:space="preserve" text-anchor="start" x="839.5" y="-137.7" font-family="Helvetica,sans-Serif" font-size="9.00">counterpartyAccount: string</text>
</g>
<!-- account_org_biz_transaction&#45;&gt;account_org_biz_account -->
<g id="edge7" class="edge">
<title>account_org_biz_transaction&#45;&gt;account_org_biz_account</title>
<path fill="none" stroke="black" d="M831.04,-137.75C827.99,-135.54 824.97,-133.36 822,-131.25 804.08,-118.48 800.27,-114.13 781,-103.5 764.14,-94.2 745.27,-85.3 727.65,-77.58"/>
<polygon fill="black" stroke="black" points="729.41,-74.53 718.84,-73.78 726.63,-80.96 729.41,-74.53"/>
<text xml:space="preserve" text-anchor="middle" x="825.68" y="-105.65" font-family="Helvetica,sans-Serif" font-size="8.00">accountNumber</text>
</g>
<!-- contact_org_biz_address -->
<g id="node10" class="node">
<title>contact_org_biz_address</title>
<polygon fill="none" stroke="black" points="1110.88,-137 1110.88,-237 1219.12,-237 1219.12,-137 1110.88,-137"/>
<text xml:space="preserve" text-anchor="middle" x="1165" y="-224.45" font-family="Helvetica,sans-Serif" font-size="9.00">Address</text>
<polyline fill="none" stroke="black" points="1110.88,-218.5 1219.12,-218.5"/>
<text xml:space="preserve" text-anchor="start" x="1118.88" y="-205.95" font-family="Helvetica,sans-Serif" font-size="9.00">addressId: string</text>
<text xml:space="preserve" text-anchor="start" x="1118.88" y="-195.45" font-family="Helvetica,sans-Serif" font-size="9.00">line1: string</text>
<text xml:space="preserve" text-anchor="start" x="1118.88" y="-184.95" font-family="Helvetica,sans-Serif" font-size="9.00">line2: string</text>
<text xml:space="preserve" text-anchor="start" x="1118.88" y="-174.45" font-family="Helvetica,sans-Serif" font-size="9.00">city: string</text>
<text xml:space="preserve" text-anchor="start" x="1118.88" y="-163.95" font-family="Helvetica,sans-Serif" font-size="9.00">stateOrProvince: string</text>
<text xml:space="preserve" text-anchor="start" x="1118.88" y="-153.45" font-family="Helvetica,sans-Serif" font-size="9.00">postalCode: string</text>
<text xml:space="preserve" text-anchor="start" x="1118.88" y="-142.95" font-family="Helvetica,sans-Serif" font-size="9.00">countryCode: string</text>
</g>
<!-- contact_org_biz_contact_details -->
<g id="node11" class="node">
<title>contact_org_biz_contact_details</title>
<polygon fill="#ffcccc" stroke="#ff0000" stroke-width="2" points="1236.88,-152.75 1236.88,-221.25 1339.12,-221.25 1339.12,-152.75 1236.88,-152.75"/>
<text xml:space="preserve" text-anchor="middle" x="1288" y="-208.7" font-family="Helvetica,sans-Serif" font-size="9.00">ContactDetails</text>
<polyline fill="none" stroke="#ff0000" stroke-width="2" points="1236.88,-202.75 1339.12,-202.75"/>
<text xml:space="preserve" text-anchor="start" x="1244.88" y="-190.2" font-family="Helvetica,sans-Serif" font-size="9.00">contactId: ref</text>
<text xml:space="preserve" text-anchor="start" x="1244.88" y="-179.7" font-family="Helvetica,sans-Serif" font-size="9.00">email: string</text>
<text xml:space="preserve" text-anchor="start" x="1244.88" y="-169.2" font-family="Helvetica,sans-Serif" font-size="9.00">phoneNumber: string</text>
<text xml:space="preserve" text-anchor="start" x="1244.88" y="-158.7" font-family="Helvetica,sans-Serif" font-size="9.00">address: string</text>
</g>
<!-- contact_org_biz_contact_details&#45;&gt;contact_org_biz_contact -->
<g id="edge8" class="edge">
<title>contact_org_biz_contact_details&#45;&gt;contact_org_biz_contact</title>
<path fill="none" stroke="black" d="M1323.25,-152.51C1331.47,-145.22 1340.36,-137.76 1349,-131.25 1373,-113.18 1401.2,-95.23 1424.92,-80.97"/>
<polygon fill="black" stroke="black" points="1426.68,-84 1433.48,-75.87 1423.1,-77.98 1426.68,-84"/>
<text xml:space="preserve" text-anchor="middle" x="1402.22" y="-105.65" font-family="Helvetica,sans-Serif" font-size="8.00">contactId</text>
</g>
<!-- contact_org_biz_customer_profile -->
<g id="node13" class="node">
<title>contact_org_biz_customer_profile</title>
<polygon fill="#ffcccc" stroke="#ff0000" stroke-width="2" points="1357.5,-142.25 1357.5,-231.75 1472.5,-231.75 1472.5,-142.25 1357.5,-142.25"/>
<text xml:space="preserve" text-anchor="middle" x="1415" y="-219.2" font-family="Helvetica,sans-Serif" font-size="9.00">CustomerProfile</text>
<polyline fill="none" stroke="#ff0000" stroke-width="2" points="1357.5,-213.25 1472.5,-213.25"/>
<text xml:space="preserve" text-anchor="start" x="1365.5" y="-200.7" font-family="Helvetica,sans-Serif" font-size="9.00">customerId: string</text>
<text xml:space="preserve" text-anchor="start" x="1365.5" y="-190.2" font-family="Helvetica,sans-Serif" font-size="9.00">contactId: ref</text>
<text xml:space="preserve" text-anchor="start" x="1365.5" y="-179.7" font-family="Helvetica,sans-Serif" font-size="9.00">primaryAddressId: string</text>
<text xml:space="preserve" text-anchor="start" x="1365.5" y="-169.2" font-family="Helvetica,sans-Serif" font-size="9.00">status: string</text>
<text xml:space="preserve" text-anchor="start" x="1365.5" y="-158.7" font-family="Helvetica,sans-Serif" font-size="9.00">createdAt: string</text>
<text xml:space="preserve" text-anchor="start" x="1365.5" y="-148.2" font-family="Helvetica,sans-Serif" font-size="9.00">updatedAt: string</text>
</g>
<!-- contact_org_biz_customer_profile&#45;&gt;contact_org_biz_contact -->
<g id="edge9" class="edge">
<title>contact_org_biz_customer_profile&#45;&gt;contact_org_biz_contact</title>
<path fill="none" stroke="black" d="M1434.97,-142.04C1442.56,-125.36 1451.13,-106.49 1458.47,-90.34"/>
<polygon fill="black" stroke="black" points="1461.51,-92.09 1462.46,-81.54 1455.14,-89.2 1461.51,-92.09"/>
<text xml:space="preserve" text-anchor="middle" x="1467.09" y="-105.65" font-family="Helvetica,sans-Serif" font-size="8.00">contactId</text>
</g>
<!-- contact_org_biz_email_address -->
<g id="node14" class="node">
<title>contact_org_biz_email_address</title>
<polygon fill="#ffcccc" stroke="#ff0000" stroke-width="2" points="1490.75,-147.5 1490.75,-226.5 1583.25,-226.5 1583.25,-147.5 1490.75,-147.5"/>
<text xml:space="preserve" text-anchor="middle" x="1537" y="-213.95" font-family="Helvetica,sans-Serif" font-size="9.00">EmailAddress</text>
<polyline fill="none" stroke="#ff0000" stroke-width="2" points="1490.75,-208 1583.25,-208"/>
<text xml:space="preserve" text-anchor="start" x="1498.75" y="-195.45" font-family="Helvetica,sans-Serif" font-size="9.00">emailId: string</text>
<text xml:space="preserve" text-anchor="start" x="1498.75" y="-184.95" font-family="Helvetica,sans-Serif" font-size="9.00">contactId: ref</text>
<text xml:space="preserve" text-anchor="start" x="1498.75" y="-174.45" font-family="Helvetica,sans-Serif" font-size="9.00">email: string</text>
<text xml:space="preserve" text-anchor="start" x="1498.75" y="-163.95" font-family="Helvetica,sans-Serif" font-size="9.00">type: string</text>
<text xml:space="preserve" text-anchor="start" x="1498.75" y="-153.45" font-family="Helvetica,sans-Serif" font-size="9.00">isPrimary: boolean</text>
</g>
<!-- contact_org_biz_email_address&#45;&gt;contact_org_biz_contact -->
<g id="edge10" class="edge">
<title>contact_org_biz_email_address&#45;&gt;contact_org_biz_contact</title>
<path fill="none" stroke="black" d="M1519.36,-147.17C1511.22,-129.26 1501.58,-108.05 1493.47,-90.19"/>
<polygon fill="black" stroke="black" points="1496.71,-88.87 1489.39,-81.21 1490.34,-91.76 1496.71,-88.87"/>
<text xml:space="preserve" text-anchor="middle" x="1518.97" y="-105.65" font-family="Helvetica,sans-Serif" font-size="8.00">contactId</text>
</g>
<!-- contact_org_biz_kyc_profile -->
<g id="node15" class="node">
<title>contact_org_biz_kyc_profile</title>
<polygon fill="none" stroke="black" points="1601.62,-147.5 1601.62,-226.5 1708.38,-226.5 1708.38,-147.5 1601.62,-147.5"/>
<text xml:space="preserve" text-anchor="middle" x="1655" y="-213.95" font-family="Helvetica,sans-Serif" font-size="9.00">KYCProfile</text>
<polyline fill="none" stroke="black" points="1601.62,-208 1708.38,-208"/>
<text xml:space="preserve" text-anchor="start" x="1609.62" y="-195.45" font-family="Helvetica,sans-Serif" font-size="9.00">kycId: string</text>
<text xml:space="preserve" text-anchor="start" x="1609.62" y="-184.95" font-family="Helvetica,sans-Serif" font-size="9.00">customerId: string</text>
<text xml:space="preserve" text-anchor="start" x="1609.62" y="-174.45" font-family="Helvetica,sans-Serif" font-size="9.00">riskRating: string</text>
<text xml:space="preserve" text-anchor="start" x="1609.62" y="-163.95" font-family="Helvetica,sans-Serif" font-size="9.00">lastReviewedAt: string</text>
<text xml:space="preserve" text-anchor="start" x="1609.62" y="-153.45" font-family="Helvetica,sans-Serif" font-size="9.00">reviewer: string</text>
</g>
<!-- contact_org_biz_phone_number -->
<g id="node16" class="node">
<title>contact_org_biz_phone_number</title>
<polygon fill="#ffcccc" stroke="#ff0000" stroke-width="2" points="1726.25,-142.25 1726.25,-231.75 1821.75,-231.75 1821.75,-142.25 1726.25,-142.25"/>
<text xml:space="preserve" text-anchor="middle" x="1774" y="-219.2" font-family="Helvetica,sans-Serif" font-size="9.00">PhoneNumber</text>
<polyline fill="none" stroke="#ff0000" stroke-width="2" points="1726.25,-213.25 1821.75,-213.25"/>
<text xml:space="preserve" text-anchor="start" x="1734.25" y="-200.7" font-family="Helvetica,sans-Serif" font-size="9.00">phoneId: string</text>
<text xml:space="preserve" text-anchor="start" x="1734.25" y="-190.2" font-family="Helvetica,sans-Serif" font-size="9.00">contactId: ref</text>
<text xml:space="preserve" text-anchor="start" x="1734.25" y="-179.7" font-family="Helvetica,sans-Serif" font-size="9.00">countryCode: string</text>
<text xml:space="preserve" text-anchor="start" x="1734.25" y="-169.2" font-family="Helvetica,sans-Serif" font-size="9.00">number: string</text>
<text xml:space="preserve" text-anchor="start" x="1734.25" y="-158.7" font-family="Helvetica,sans-Serif" font-size="9.00">type: string</text>
<text xml:space="preserve" text-anchor="start" x="1734.25" y="-148.2" font-family="Helvetica,sans-Serif" font-size="9.00">isPrimary: boolean</text>
</g>
<!-- contact_org_biz_phone_number&#45;&gt;contact_org_biz_contact -->
<g id="edge11" class="edge">
<title>contact_org_biz_phone_number&#45;&gt;contact_org_biz_contact</title>
<path fill="none" stroke="black" d="M1732.11,-141.95C1727.25,-138.03 1722.17,-134.36 1717,-131.25 1657.17,-95.23 1579.03,-73.33 1528.2,-61.88"/>
<polygon fill="black" stroke="black" points="1529.15,-58.51 1518.63,-59.79 1527.65,-65.35 1529.15,-58.51"/>
<text xml:space="preserve" text-anchor="middle" x="1696.61" y="-105.65" font-family="Helvetica,sans-Serif" font-size="8.00">contactId</text>
</g>
<!-- contact_org_biz_tax_identifier -->
<g id="node17" class="node">
<title>contact_org_biz_tax_identifier</title>
<polygon fill="#ffcccc" stroke="#ff0000" stroke-width="2" points="1840.25,-147.5 1840.25,-226.5 1941.75,-226.5 1941.75,-147.5 1840.25,-147.5"/>
<text xml:space="preserve" text-anchor="middle" x="1891" y="-213.95" font-family="Helvetica,sans-Serif" font-size="9.00">TaxIdentifier</text>
<polyline fill="none" stroke="#ff0000" stroke-width="2" points="1840.25,-208 1941.75,-208"/>
<text xml:space="preserve" text-anchor="start" x="1848.25" y="-195.45" font-family="Helvetica,sans-Serif" font-size="9.00">taxId: string</text>
<text xml:space="preserve" text-anchor="start" x="1848.25" y="-184.95" font-family="Helvetica,sans-Serif" font-size="9.00">contactId: ref</text>
<text xml:space="preserve" text-anchor="start" x="1848.25" y="-174.45" font-family="Helvetica,sans-Serif" font-size="9.00">taxIdType: string</text>
<text xml:space="preserve" text-anchor="start" x="1848.25" y="-163.95" font-family="Helvetica,sans-Serif" font-size="9.00">identifierValue: string</text>
<text xml:space="preserve" text-anchor="start" x="1848.25" y="-153.45" font-family="Helvetica,sans-Serif" font-size="9.00">countryCode: string</text>
</g>
<!-- contact_org_biz_tax_identifier&#45;&gt;contact_org_biz_contact -->
<g id="edge12" class="edge">
<title>contact_org_biz_tax_identifier&#45;&gt;contact_org_biz_contact</title>
<path fill="none" stroke="black" d="M1854.15,-147.24C1846.94,-141.21 1839.09,-135.56 1831,-131.25 1732.51,-78.81 1600.89,-60.89 1528.77,-54.82"/>
<polygon fill="black" stroke="black" points="1529.05,-51.33 1518.81,-54.03 1528.5,-58.3 1529.05,-51.33"/>
<text xml:space="preserve" text-anchor="middle" x="1802.5" y="-105.65" font-family="Helvetica,sans-Serif" font-size="8.00">contactId</text>
</g>
</g>
</svg>
